<!DOCTYPE svg PUBLIC "-//W3C//DTD SVG 20010904//EN" "http://www.w3.org/TR/2001/REC-SVG-20010904/DTD/svg10.dtd">
<svg version="1.0" xmlns="http://www.w3.org/2000/svg" width="150px" height="150px" viewBox="0 0 1500 1500" preserveAspectRatio="xMidYMid meet">
<g id="layer101" fill="#0087a7" stroke="none">
 <path d="M565 1431 c-212 -61 -393 -223 -461 -411 -45 -125 -57 -283 -30 -405 57 -259 245 -448 517 -520 71 -19 231 -19 316 1 237 54 447 258 508 494 25 98 17 322 -15 405 -67 172 -195 313 -352 388 -51 25 -114 50 -140 56 -73 17 -272 13 -343 -8z"/>
 </g>
<g id="layer102" fill="#02b9e4" stroke="none">
 <path d="M565 1431 c-212 -61 -393 -223 -461 -411 -45 -125 -57 -283 -30 -405 57 -259 245 -448 517 -520 71 -19 231 -19 316 1 237 54 447 258 508 494 25 98 17 322 -15 405 -67 172 -195 313 -352 388 -51 25 -114 50 -140 56 -73 17 -272 13 -343 -8z m335 -5 c145 -37 238 -90 340 -196 87 -90 153 -219 175 -341 l7 -35 -243 -222 c-133 -122 -243 -221 -245 -219 -2 1 -4 62 -6 136 -2 108 -6 135 -19 144 -9 7 -20 28 -24 47 -4 19 -12 40 -17 47 -7 8 -2 21 16 40 14 15 26 31 26 35 0 3 44 23 98 44 128 49 189 80 200 101 5 10 13 51 16 90 l7 73 -481 2 -482 3 145 122 c114 96 153 123 188 131 65 15 236 13 299 -2z"/>
 </g>
<g id="layer103" fill="#9fdfed" stroke="none">
 <path d="M515 1415 c-39 -17 -21 -18 25 0 19 7 28 14 20 14 -8 0 -28 -6 -45 -14z"/>
 <path d="M400 1363 c-114 -67 -238 -205 -285 -315 -27 -65 -16 -55 20 17 64 130 164 234 295 304 30 17 50 31 45 31 -6 0 -39 -17 -75 -37z"/>
 <path d="M1225 1250 c38 -38 72 -70 74 -70 3 0 -26 32 -64 70 -38 39 -72 70 -74 70 -3 0 26 -31 64 -70z"/>
 <path d="M270 1102 c0 -46 5 -75 16 -91 18 -24 89 -60 217 -106 60 -22 81 -34 93 -56 7 -15 21 -32 30 -37 16 -9 16 -11 0 -33 -9 -13 -16 -36 -16 -52 0 -15 -6 -30 -14 -33 -21 -8 -28 -46 -32 -169 -4 -141 3 -164 67 -204 40 -25 61 -31 105 -31 70 0 131 29 164 78 23 35 25 45 25 164 0 115 -2 129 -23 157 -12 17 -22 41 -22 55 0 13 -7 32 -16 40 -14 15 -12 20 22 56 30 32 63 49 157 86 161 63 170 72 175 168 l4 76 -476 0 -476 0 0 -68z"/>
 <path d="M86 975 c-3 -9 -6 -24 -5 -33 0 -9 5 -4 10 12 9 32 6 48 -5 21z"/>
 <path d="M1401 970 c0 -8 4 -24 9 -35 5 -13 9 -14 9 -5 0 8 -4 24 -9 35 -5 13 -9 14 -9 5z"/>
 <path d="M63 845 c0 -22 2 -30 4 -17 2 12 2 30 0 40 -3 9 -5 -1 -4 -23z"/>
 <path d="M62 690 c0 -19 2 -27 5 -17 2 9 2 25 0 35 -3 9 -5 1 -5 -18z"/>
 <path d="M1412 620 c-39 -188 -170 -359 -353 -460 -30 -16 -50 -30 -45 -30 5 0 39 16 75 37 97 53 217 178 268 278 41 80 77 192 71 223 -2 9 -9 -13 -16 -48z"/>
 <path d="M80 584 c0 -10 5 -26 10 -34 8 -11 9 -7 4 15 -8 37 -14 45 -14 19z"/>
 <path d="M120 473 c0 -18 79 -133 126 -183 42 -45 158 -129 197 -143 31 -11 18 0 -25 23 -100 52 -212 163 -265 261 -24 46 -33 57 -33 42z"/>
 <path d="M945 115 c-22 -8 -31 -14 -20 -14 11 0 34 6 50 14 38 17 22 17 -30 0z"/>
 <path d="M610 90 c25 -8 97 -13 89 -6 -2 2 -29 6 -59 9 -36 4 -46 3 -30 -3z"/>
 </g>
<g id="layer104" fill="#fdfefe" stroke="none">
 <path d="M276 1098 c4 -45 13 -80 23 -92 17 -19 89 -54 181 -88 30 -11 67 -24 82 -30 14 -5 32 -23 38 -39 7 -16 18 -29 26 -29 21 0 27 -20 11 -38 -8 -9 -17 -32 -21 -51 -3 -19 -14 -39 -23 -46 -13 -10 -17 -32 -20 -101 -1 -49 -5 -105 -7 -124 -6 -49 15 -101 50 -122 80 -48 87 -50 135 -45 66 8 123 39 148 82 17 30 21 53 22 148 1 123 -5 163 -27 171 -8 3 -14 15 -14 27 0 11 -7 36 -16 54 -15 32 -15 33 18 69 24 26 60 46 135 75 130 51 179 76 187 96 3 9 9 48 12 86 l7 69 -477 0 -477 0 7 -72z"/>
 <path d="M255 280 c27 -27 51 -50 54 -50 3 0 -17 23 -44 50 -27 28 -51 50 -54 50 -3 0 17 -22 44 -50z"/>
 </g>

</svg>